<svg width="35" height="35" viewBox="0 0 35 35" fill="none" xmlns="http://www.w3.org/2000/svg">
<g id="Group 21">
<path id="Vector" d="M17.5 0C7.83266 0 0 7.83266 0 17.5C0 27.1673 7.83266 35 17.5 35C27.1673 35 35 27.1673 35 17.5C35 7.83266 27.1673 0 17.5 0ZM27.6613 19.4758C27.6613 19.9415 27.2802 20.3226 26.8145 20.3226H20.3226V26.8145C20.3226 27.2802 19.9415 27.6613 19.4758 27.6613H15.5242C15.0585 27.6613 14.6774 27.2802 14.6774 26.8145V20.3226H8.18548C7.71976 20.3226 7.33871 19.9415 7.33871 19.4758V15.5242C7.33871 15.0585 7.71976 14.6774 8.18548 14.6774H14.6774V8.18548C14.6774 7.71976 15.0585 7.33871 15.5242 7.33871H19.4758C19.9415 7.33871 20.3226 7.71976 20.3226 8.18548V14.6774H26.8145C27.2802 14.6774 27.6613 15.0585 27.6613 15.5242V19.4758Z" fill="#B3B9BE"/>
</g>
</svg>
