<svg width="28" height="36" viewBox="0 0 28 36" fill="none" xmlns="http://www.w3.org/2000/svg">
<path id="coolicon" d="M13.7007 35.93C11.809 35.93 10.2755 34.3648 10.2755 32.434H17.1259C17.1259 34.3648 15.5924 35.93 13.7007 35.93ZM27.4014 30.686H0V27.1899L3.42518 25.4419V15.8278C3.42518 9.77614 5.85877 5.85183 10.2755 4.78029V4.39478C10.2755 2.50311 11.809 0.969604 13.7007 0.969604C15.5924 0.969604 17.1259 2.50311 17.1259 4.39478V4.78029C21.5427 5.85008 23.9762 9.77264 23.9762 15.8278V25.4419L27.4014 27.1899V30.686ZM13.7007 7.52469C11.6108 7.38695 9.59527 8.3415 8.34887 10.0593C7.28286 11.7803 6.75983 13.7938 6.85036 15.8278V26.1899C6.85036 26.7422 7.29807 27.1899 7.85036 27.1899H19.5511C20.1034 27.1899 20.5511 26.7422 20.5511 26.1899V15.8278C20.6415 13.7938 20.1185 11.7804 19.0526 10.0593C17.8062 8.3415 15.7906 7.38695 13.7007 7.52469Z" fill="#B3B9BE"/>
</svg>
