<svg width="33" height="37" viewBox="0 0 33 37" fill="none" xmlns="http://www.w3.org/2000/svg">
<path id="coolicon" d="M29.3333 36.8965H3.66667C1.64162 36.8965 0 35.2847 0 33.2965V8.09649C0 6.10826 1.64162 4.49648 3.66667 4.49648H7.33333V2.72982C7.33333 1.7173 8.15415 0.896484 9.16667 0.896484C10.1792 0.896484 11 1.7173 11 2.72982V4.49648H22V2.72982C22 1.7173 22.8208 0.896484 23.8333 0.896484C24.8459 0.896484 25.6667 1.7173 25.6667 2.72982V4.49648H29.3333C31.3584 4.49648 33 6.10826 33 8.09649V33.2965C33 35.2847 31.3584 36.8965 29.3333 36.8965ZM3.66667 15.2965V32.2965C3.66667 32.8488 4.11438 33.2965 4.66667 33.2965H28.3333C28.8856 33.2965 29.3333 32.8488 29.3333 32.2965V15.2965H3.66667ZM4.66667 8.09649C4.11438 8.09649 3.66667 8.5442 3.66667 9.09649V11.6965H29.3333V9.09649C29.3333 8.5442 28.8856 8.09649 28.3333 8.09649H4.66667ZM25.6667 27.8965C25.6667 28.8906 24.8608 29.6965 23.8667 29.6965H23.8C22.8059 29.6965 22 28.8906 22 27.8965C22 26.9024 22.8059 26.0965 23.8 26.0965H23.8667C24.8608 26.0965 25.6667 26.9024 25.6667 27.8965ZM18.3333 27.8965C18.3333 28.8906 17.5274 29.6965 16.5333 29.6965H16.4667C15.4726 29.6965 14.6667 28.8906 14.6667 27.8965C14.6667 26.9024 15.4726 26.0965 16.4667 26.0965H16.5333C17.5274 26.0965 18.3333 26.9024 18.3333 27.8965ZM11 27.8965C11 28.8906 10.1941 29.6965 9.2 29.6965H9.13333C8.13922 29.6965 7.33333 28.8906 7.33333 27.8965C7.33333 26.9024 8.13922 26.0965 9.13333 26.0965H9.2C10.1941 26.0965 11 26.9024 11 27.8965ZM25.6667 20.6965C25.6667 21.6906 24.8608 22.4965 23.8667 22.4965H23.8C22.8059 22.4965 22 21.6906 22 20.6965C22 19.7024 22.8059 18.8965 23.8 18.8965H23.8667C24.8608 18.8965 25.6667 19.7024 25.6667 20.6965ZM18.3333 20.6965C18.3333 21.6906 17.5274 22.4965 16.5333 22.4965H16.4667C15.4726 22.4965 14.6667 21.6906 14.6667 20.6965C14.6667 19.7024 15.4726 18.8965 16.4667 18.8965H16.5333C17.5274 18.8965 18.3333 19.7024 18.3333 20.6965ZM11 20.6965C11 21.6906 10.1941 22.4965 9.2 22.4965H9.13334C8.13922 22.4965 7.33333 21.6906 7.33333 20.6965C7.33333 19.7024 8.13922 18.8965 9.13333 18.8965H9.2C10.1941 18.8965 11 19.7024 11 20.6965Z" fill="#B3B9BE"/>
</svg>
