<svg width="31" height="32" viewBox="0 0 31 32" fill="none" xmlns="http://www.w3.org/2000/svg">
<g id="Frame 2606">
<g id="Group 43">
<rect id="Rectangle 427" x="14.9331" y="19.6267" width="3.26551" height="9.25228" rx="1.63276" transform="rotate(-45 14.9331 19.6267)" fill="#3F9FFF"/>
<path id="Subtract" fill-rule="evenodd" clip-rule="evenodd" d="M18.2043 20.2043C21.9238 16.4847 21.9238 10.4542 18.2043 6.73471C14.4848 3.0152 8.45428 3.0152 4.73477 6.73471C1.01526 10.4542 1.01526 16.4847 4.73477 20.2043C8.45428 23.9238 14.4848 23.9238 18.2043 20.2043ZM16.28 18.28C18.9368 15.6232 18.9368 11.3157 16.28 8.65893C13.6232 6.00214 9.31573 6.00214 6.65893 8.65893C4.00214 11.3157 4.00214 15.6232 6.65893 18.28C9.31573 20.9368 13.6232 20.9368 16.28 18.28Z" fill="#3F9FFF"/>
</g>
</g>
</svg>
